<svg xmlns="http://www.w3.org/2000/svg" width="225.46" height="84.194" viewBox="0 0 225.46 84.194"><path fill="#434343" d="M46.691 60.857V3.4H32.727V35L8.938 3.4H.571v57.457h13.936v-31.6l23.817 31.6z"/><path fill-rule="evenodd" clip-rule="evenodd" fill="#04BDE8" d="M52.717 11.143l8.311 2.686-4.998 6.886L60.57 24l4.854-6.686 4.712 6.485 4.569-3.286-4.94-6.771 7.968-2.6L75.991 5.8l-7.967 2.572V0h-5.598v8.372L54.459 5.8l-1.742 5.343z"/><path fill-rule="evenodd" clip-rule="evenodd" fill="#434343" d="M96.324 20.829V3.4h-1.2v14.943L84.016 3.4h-.628v17.429h1.199V5.886l11.137 14.943h.6zM107.004 8.2c-3.541 0-6.368 2.857-6.368 6.4s2.827 6.372 6.368 6.372 6.396-2.829 6.396-6.372-2.855-6.4-6.396-6.4zm.029 1.086c2.855 0 5.254 2.314 5.254 5.314 0 3.028-2.399 5.314-5.254 5.314-2.884 0-5.255-2.286-5.255-5.314 0-3 2.371-5.314 5.255-5.314zm15.221 11.543l5.711-12.457h-1.199l-4.854 10.6-4.826-10.6h-1.199l5.739 12.457h.628zM136.819 8.2c-3.542 0-6.397 2.857-6.397 6.4s2.855 6.372 6.397 6.372c3.512 0 6.396-2.829 6.396-6.372s-2.884-6.4-6.396-6.4zm.028 1.086c2.855 0 5.226 2.314 5.226 5.314 0 3.028-2.37 5.314-5.226 5.314-2.913 0-5.255-2.286-5.255-5.314 0-3 2.342-5.314 5.255-5.314zm14.65-1.086c-2.484 0-4.54 1.286-4.54 3.371 0 1.6.942 2.8 3.998 3.143l1.742.2c1.428.143 2.998.4 2.998 2.543 0 1.771-1.771 2.571-3.77 2.571h-.114c-1.971 0-3.941-.942-4.598-2.229l-.686.629c.8 1.514 2.97 2.571 5.283 2.571h.229c2.627 0 4.798-1.286 4.798-3.6 0-2.743-2.113-3.314-3.97-3.486l-1.799-.2c-2.57-.286-2.971-1.171-2.971-2.2 0-1.457 1.542-2.371 3.513-2.371h.229c1.399 0 3.198.771 4.026 2.028l.686-.657c-.971-1.4-2.998-2.314-4.74-2.314h-.314zm10.252-1.6c.429 0 .743-.314.743-.686 0-.4-.314-.714-.743-.714-.428 0-.742.314-.742.714-.001.372.314.686.742.686zm-.542 14.229h1.113V8.372h-1.113v12.457zM168.431 3.4h-1.113v17.429h.856l.058-3.314c.942 2.057 3.055 3.458 5.482 3.458 3.541 0 6.312-2.829 6.312-6.372s-2.771-6.4-6.312-6.4a5.842 5.842 0 0 0-5.283 3.371V3.4zm5.227 5.886c2.884 0 5.254 2.314 5.254 5.314 0 3.028-2.37 5.314-5.254 5.314-2.885 0-5.255-2.286-5.255-5.314 0-3 2.37-5.314 5.255-5.314zM184.966 6.6c.399 0 .742-.314.742-.686 0-.4-.343-.714-.742-.714-.429 0-.742.314-.742.714 0 .372.314.686.742.686zm-.571 14.229h1.143V8.372h-1.143v12.457zm13.336-11.543V8.2h-.229c-2.827 0-5.055 1.229-6.025 3.857l-.086-3.686h-.885v12.457h1.113v-5.2c0-3.485 1.514-6.343 5.654-6.343h.458zm7.568-1.086c-2.485 0-4.541 1.286-4.541 3.371 0 1.6.942 2.8 3.998 3.143l1.742.2c1.428.143 2.998.4 2.998 2.543 0 1.771-1.771 2.571-3.77 2.571h-.114c-1.999 0-3.94-.942-4.598-2.229l-.686.629c.773 1.515 2.972 2.572 5.285 2.572h.229c2.628 0 4.77-1.286 4.77-3.6 0-2.743-2.085-3.314-3.941-3.486l-1.799-.2c-2.57-.286-2.998-1.171-2.998-2.2 0-1.457 1.57-2.371 3.541-2.371h.229c1.398 0 3.198.771 3.998 2.028l.714-.657c-.972-1.4-2.999-2.314-4.741-2.314h-.316zm18.876 12.629h1.285l-2.37-3.6c-1.028-1.628-1.656-2.571-2.771-2.886.886-.4 1.485-1.343 2.428-2.771l2.113-3.2h-1.285l-1.714 2.657c-1.342 2.086-1.827 2.829-3.884 2.829h-2.113V3.4h-1.113v17.429h1.113v-5.886h2.456c2.057 0 2.542.714 3.884 2.829l1.971 3.057zM89.47 23.286c-2.999 0-5.797 1.829-5.797 4.714 0 2.4 1.656 3.628 5.226 4.143l2.142.286c2.855.4 4.227 1.457 4.227 3.686 0 2.4-2.342 3.857-5.026 3.857h-.172c-3.141 0-5.254-1.429-6.054-3.543l-.771.714c.971 2.371 3.37 3.943 6.825 3.943h.171c3.313 0 6.226-1.943 6.226-4.972 0-2.971-1.828-4.314-5.312-4.8l-2.142-.286c-2.97-.428-4.141-1.343-4.141-3.057 0-2.314 2.37-3.543 4.598-3.543h.286c2.113 0 4.141.857 5.312 2.514l.771-.743c-1.313-1.857-3.598-2.915-6.083-2.915h-.286zm13.136 6.228h1.914v-1.057h-1.914v-4.2h-1.114v4.2H99.58v1.057h1.913v11.4h1.114v-11.4zm17.706 11.4V28.457h-.885l-.058 3.314c-.942-2.086-3.056-3.486-5.482-3.486-3.542 0-6.312 2.857-6.312 6.4s2.77 6.372 6.312 6.372c2.427 0 4.54-1.429 5.482-3.457l.058 3.314h.885zm-6.34-.914c-2.884 0-5.254-2.314-5.254-5.314 0-3.028 2.371-5.343 5.254-5.343 2.885 0 5.255 2.314 5.255 5.343 0 3-2.37 5.314-5.255 5.314zm13.422-10.486h1.914v-1.057h-1.914v-4.2h-1.113v4.2h-1.913v1.057h1.913v11.4h1.113v-11.4zm11.338-1.228c-3.77 0-6.34 2.857-6.34 6.4 0 3.829 2.685 6.372 6.597 6.372 2.113 0 3.855-.771 5.197-1.886l-.628-.714c-1.257.972-2.771 1.6-4.569 1.571-3.227 0-5.454-1.942-5.454-5.143h11.08c.171-.686.086-1.972-.257-2.829-.858-2.228-2.857-3.771-5.626-3.771zm.028 1.028c2.256 0 3.884 1.257 4.598 3.085.2.486.286 1.171.286 1.657h-10.053c.172-2.627 2.228-4.742 5.169-4.742zM96.981 43.4h-1.2v9.828c0 4.086-2.142 6.658-5.94 6.658-3.798 0-5.911-2.572-5.911-6.658V43.4h-1.199v9.857c0 4.629 2.684 7.771 7.11 7.771 4.427 0 7.14-3.143 7.14-7.771V43.4zm11.137 4.801c-1.913 0-4.255.971-5.254 3.457l-.057-3.258h-.885v12.428h1.142V55c0-3.57 1.942-5.713 4.94-5.713 2.656 0 4.398 1.541 4.398 4.828v6.713h1.143v-6.77c-.001-3.744-2.114-5.857-5.427-5.857zm10.995-1.573a.73.73 0 0 0 .742-.715c0-.398-.313-.713-.742-.713s-.742.314-.742.713a.73.73 0 0 0 .742.715zm-.543 14.2h1.114V48.4h-1.114v12.428zm10.995 0l5.711-12.428h-1.171l-4.854 10.572-4.827-10.572h-1.199l5.712 12.428h.628zM144.1 48.201c-3.77 0-6.339 2.885-6.339 6.398 0 3.857 2.684 6.373 6.597 6.4 2.113 0 3.854-.771 5.226-1.914l-.657-.686c-1.228.971-2.77 1.572-4.568 1.572-3.228-.029-5.455-1.943-5.455-5.172h11.08c.2-.658.086-1.943-.228-2.801-.886-2.227-2.885-3.797-5.656-3.797zm.029 1.056c2.256 0 3.912 1.258 4.598 3.057.199.514.313 1.172.285 1.686h-10.023c.171-2.657 2.199-4.743 5.14-4.743zm17.134.03v-1.086h-.229c-2.827 0-5.055 1.229-6.025 3.885l-.114-3.686h-.856v12.428h1.113v-5.199c0-3.486 1.514-6.342 5.654-6.342h.457zm7.569-1.086c-2.484 0-4.541 1.285-4.541 3.371 0 1.6.942 2.799 3.998 3.143l1.742.199c1.428.172 2.998.4 2.998 2.543 0 1.771-1.771 2.602-3.77 2.602h-.114c-1.999 0-3.969-.973-4.598-2.258l-.714.656c.8 1.486 2.999 2.572 5.312 2.572h.229c2.599 0 4.77-1.314 4.77-3.629 0-2.742-2.085-3.285-3.941-3.486l-1.799-.199c-2.57-.285-2.999-1.172-2.999-2.199 0-1.457 1.571-2.344 3.542-2.344h.229c1.398 0 3.198.771 3.998 2l.714-.629c-.972-1.428-2.999-2.342-4.741-2.342h-.315zm10.251-1.573a.731.731 0 0 0 .742-.715c0-.398-.314-.713-.742-.713-.429 0-.743.314-.743.713 0 .374.315.715.743.715zm-.542 14.2h1.114V48.4h-1.114v12.428zm8.396-11.371h1.913V48.4h-1.913v-4.199h-1.143V48.4h-1.913v1.057h1.913v11.371h1.143V49.457zm17.334-1.057h-1.143v5.742c0 3.543-1.971 5.715-4.94 5.715-2.655 0-4.426-1.543-4.426-4.857v-6.6h-1.114v6.658c0 3.77 2.113 5.855 5.397 5.855 1.827 0 4.084-.855 5.083-3.285v1.828c0 3.258-1.599 5.086-4.798 5.086-1.855.029-3.313-.6-4.598-1.57l-.656.742c1.37 1.143 3.112 1.885 5.254 1.885 3.913-.027 5.94-2.457 5.94-6.313V48.4zM21.218 72.658h3.969v-1.973h-9.995v1.973h3.941v11.6h2.085v-11.6zm17.363 11.599V70.685h-2.084v5.744h-6.226v-5.744h-2.113v13.572h2.113V78.4h6.226v5.857h2.084zm6.311-7.828v-3.771h6.711v-1.973h-8.795v13.572h8.795v-1.971h-6.711V78.4h6.254v-1.971h-6.254zm16.221-5.744v13.572h2.084v-3.572h2.142c1.399.029 1.885.314 2.941 2l1.028 1.572h2.342l-1.256-1.943C69.566 81 68.938 80.343 68.252 80c1.971-.656 3.199-2.172 3.199-4.314 0-2.941-2.228-5-5.854-5h-4.484zm2.084 1.973h2.57c2.056 0 3.712.971 3.712 3.027 0 2.143-1.656 3.029-3.712 3.029h-2.57v-6.056zm13.508 3.771v-3.771h6.74v-1.973h-8.824v13.572h8.824v-1.971h-6.74V78.4h6.254v-1.971h-6.254zm12.166 4.772h5.283l1.228 3.057h2.284l-5.511-13.572h-1.228L85.33 84.257h2.313l1.228-3.056zm2.655-6.686l1.914 4.713h-3.827l1.913-4.713zm17.535 9.742v-1.971h-6.511V70.685h-2.113v13.572h8.624zm13.422-13.715c-2.656.029-4.855 1.543-4.855 3.973 0 2.229 1.742 3.256 4.398 3.543l1.285.17c1.656.201 2.741.715 2.741 2.059 0 1.313-1.285 2.113-3.027 2.143h-.114c-2.17 0-3.627-1.029-4.255-2.143l-1.342 1.256c.942 1.572 2.884 2.828 5.597 2.828h.114c2.856 0 5.112-1.543 5.112-4.084 0-2.629-1.828-3.658-4.569-4l-1.257-.145c-1.599-.229-2.599-.627-2.599-1.686 0-1.371 1.57-1.941 2.771-1.941h.171c1.199 0 2.713.6 3.684 1.543l1.371-1.258c-1.257-1.344-3.142-2.258-5.055-2.258h-.171zm14.85 0c-3.827 0-6.911 3.115-6.911 6.914a6.899 6.899 0 0 0 6.911 6.914 6.997 6.997 0 0 0 5.111-2.229l-1.37-1.256c-.972.971-2.285 1.514-3.741 1.514-2.713 0-4.826-2.057-4.826-4.943 0-2.857 2.113-4.914 4.826-4.914 1.456 0 2.77.543 3.741 1.516l1.37-1.258c-1.285-1.371-3.112-2.258-5.111-2.258zm11.965 11.745v-9.629h1.599v-1.973h-5.283v1.973h1.6v9.629h-1.6v1.971h5.283v-1.971h-1.599zm7.71-5.858v-3.771h6.711v-1.973h-8.796v13.572h8.796v-1.971h-6.711V78.4h6.254v-1.971h-6.254zm20.161 7.828V70.685h-2.112v9.572l-7.14-9.572h-1.229v13.572h2.085v-9.572l7.168 9.572h1.228zm10.025-13.715c-3.827 0-6.911 3.115-6.911 6.914a6.899 6.899 0 0 0 6.911 6.914 6.997 6.997 0 0 0 5.111-2.229l-1.37-1.256c-.972.971-2.285 1.514-3.741 1.514-2.713 0-4.798-2.057-4.798-4.943 0-2.857 2.085-4.914 4.798-4.914 1.456 0 2.77.543 3.741 1.516l1.37-1.258c-1.285-1.371-3.112-2.258-5.111-2.258zm10.366 5.887v-3.771h6.711v-1.973h-8.796v13.572h8.796v-1.971h-6.711V78.4h6.254v-1.971h-6.254zM12.394 73.343l-4.112 1.342 2.484 3.4-2.256 1.629L6.083 76.4 3.77 79.628l-2.256-1.656 2.427-3.344L0 73.343l.857-2.658 3.941 1.287v-4.145h2.798v4.145l3.941-1.287.857 2.658z"/></svg>