<svg xmlns="http://www.w3.org/2000/svg" viewBox="0 0 1230.75 432.75"><defs><style>.cls-1{fill:#333}</style></defs><title>vinciРесурс 1</title><g id="Слой_2" data-name="Слой 2"><g id="Layer_1" data-name="Layer 1"><path d="M738.41 0h26.49l-122 288.95h-19.67L467.41 2.24h27.29l141 246.17zm57.78 55.78c-9.63 0-17.26-6.42-17.26-17.66 0-10.43 6.82-17.66 17.26-17.66 12 0 17.26 8.83 17.26 17.66-.01 10.44-6.83 17.66-17.26 17.66zm11.64 233.16h-23.28V96.31h23.28zm178.98.01h-23.28V172.16c0-35.32-9.63-58.19-44.95-58.19-38.12 0-61 33.31-61 67.82v107.16h-23.27V96.31H858v28.49c11.22-18.85 34.1-32.5 64.6-32.5 42.54 0 64.21 22.07 64.21 70.23zm174.56-11.64c-20.47 10.83-39.73 15.65-60.2 15.65-55 0-87.89-35.72-87.89-99.93 0-58.59 41.33-100.73 95.11-100.73 14.45 0 30.1 2 42.14 6.42l-4.82 22.07c-12.84-4.82-26.89-6.82-41.34-6.82-39.73 0-65.82 32.91-65.82 77.05 0 53.37 26.89 80.26 69 80.26 19.66 0 40.13-10.43 46.15-14.45zm51.36-221.53c-9.63 0-17.26-6.42-17.26-17.66 0-10.43 6.82-17.66 17.26-17.66 12 0 17.26 8.83 17.26 17.66.01 10.44-6.83 17.66-17.26 17.66zm11.64 233.16h-23.28V96.31h23.28zM59.36 2.24l244.28 423.54H187.28L0 105.14 59.36 2.24z"/><path class="cls-1" d="M336.88 165.37L245.8 325.62l57.84 100.16 92.61-159.89-59.37-100.52z"/><path d="M521.57 424.19L275.61 2.24h116.35L580.93 321.3l-59.36 102.89z"/><path class="cls-1" d="M242.37 262.65l91.08-160.26L275.61 2.24 183 162.13l59.37 100.52z"/><path d="M841.78 394.92v-6.09a46.27 46.27 0 0 1 .66-8.55l-.33-.16a23.39 23.39 0 0 1-5.26 6.91 34.77 34.77 0 0 1-24.18 9.54c-13 0-22.53-7.4-22.53-19.74 0-22.7 26-29.44 51.64-30.76v-5.43c0-12.34-4.93-17.43-17.93-17.43-8.55 0-18.59 2.47-25.33 6.42l-2-9.38a68.57 68.57 0 0 1 28.29-5.92c18.42 0 26.48 7.73 26.48 22.37v58.22zm-41.28-20.56c0 8.22 5.76 13.32 14.14 13.32 12.5 0 27-11.18 27-28v-5.1c-19.1.42-41.14 5.48-41.14 19.78zm128.62 7.9c0 35.85-13.16 50.49-39.64 50.49-7.24 0-16.61-1.32-21.87-4.11l1.64-10c5.59 3.45 16.28 5.26 22.53 5.26 21.55 0 27.8-15.62 27.8-39.47v-5.76c-5.59 9.7-16 14.8-27.47 14.8-18.42 0-29.93-11.68-29.93-33.06 0-27.3 16-46.05 43.91-46.05a73.48 73.48 0 0 1 23 3.45zm-9.54-55.59c-2.14-1.15-6.91-3.45-15.62-3.45-22.2 0-31.42 16.12-31.42 34.7 0 18.42 9.38 26.64 21.55 26.64 12.33 0 25.49-9.7 25.49-28.95zm82.23 62.17c-5.43 4.11-17.27 7.73-26.64 7.73-22 0-35-14.14-35-40.62 0-22.37 12.17-41.61 36.18-41.61 17.43 0 28.45 12.67 28.45 31.91a44.1 44.1 0 0 1-1.15 10H950.5c.33 19.08 8.39 31.41 26.32 31.41 7.89 0 14.8-2.3 21.88-6.91zm-7.4-41.12c.49-14.47-7.4-24.51-19.9-24.51-15 0-22.37 13.49-23 24.51zm83.72 47.2h-9.54v-47.86c0-14.47-3.95-23.85-18.42-23.85-15.62 0-25 13.65-25 27.8v43.92h-9.54V316h9.7v11.68c4.61-7.73 14-13.32 26.48-13.32 17.43 0 26.32 9 26.32 28.78zm71.54-4.77a51.15 51.15 0 0 1-24.67 6.41c-22.53 0-36-14.64-36-41 0-24 16.94-41.28 39-41.28a52.82 52.82 0 0 1 17.27 2.63l-2 9a48.21 48.21 0 0 0-16.94-2.8c-16.28 0-27 13.49-27 31.58 0 21.88 11 32.89 28.29 32.89 8.06 0 16.45-4.28 18.91-5.92zm5.75-74.15h10.36l27.8 65 27.42-65h9.7l-33.22 78.95-16.12 37.83h-9.21l16.45-39.14z"/></g></g></svg>