<?xml version="1.0" encoding="utf-8"?>
<!-- Generator: Adobe Illustrator 22.0.0, SVG Export Plug-In . SVG Version: 6.00 Build 0)  -->
<svg version="1.1" id="Layer_1" xmlns="http://www.w3.org/2000/svg" xmlns:xlink="http://www.w3.org/1999/xlink" x="0px" y="0px"
	 viewBox="0 0 160.7 27.6" style="enable-background:new 0 0 160.7 27.6;" xml:space="preserve">
<style type="text/css">
	.st0{fill:#FFFFFF;}
</style>
<g>
	<path class="st0" d="M82.5,1.6l-15.7,25h5l3.3-5.3H85l0.9,5.3h4.6l-4-25H82.5z M77.9,16.8L83,8.6l1.3,8.2H77.9z"/>
	<polygon class="st0" points="12,3 9.2,5.6 4.1,0 3,5.2 6.1,8.6 0,14.2 6,14.2 8.8,11.6 13.9,17.3 15,12 12,8.7 18,3 	"/>
	<polygon class="st0" points="63.6,1.6 61.5,11 52.9,11 55,1.6 50.3,1.6 44.6,26.6 49.3,26.6 51.9,15.2 60.5,15.2 58,26.6 
		62.7,26.6 68.3,1.6 	"/>
	<path class="st0" d="M25.4,10.2c1-1.5,2.3-2.7,4-3.6c1.6-0.9,3.4-1.3,5.1-1.3c1.2,0,2.4,0.2,3.4,0.7s1.8,1.2,2.5,2l3.7-3.2
		c-2.5-2.6-5.6-3.9-9.2-3.8c-2.7,0-5.2,0.6-7.6,1.9c-2.3,1.2-4.3,3-5.8,5.2c-1.5,2.3-2.4,4.6-2.6,7c-0.2,2.3,0.2,4.4,1.1,6.3
		c1,1.9,2.3,3.4,4.1,4.4s4,1.5,6.6,1.5c3.8,0,7.2-1,10.2-3l-2.5-3.7c-2,1.5-4.4,2.3-7,2.3c-2.4,0-4.4-0.8-5.8-2.3
		c-1.5-1.5-2.1-3.4-1.9-5.7C23.8,13.2,24.4,11.7,25.4,10.2z"/>
	<path class="st0" d="M143.4,10c-0.7-0.5-1.6-1-2.5-1.3c-0.9-0.3-1.9-0.4-3-0.4c-1.7,0-3.4,0.4-4.9,1.2l-0.1,0.1l-1.6,6.8l1-1.4
		c0.1-0.2,0.3-0.4,0.5-0.6c1.4-1.6,2.9-2.3,4.9-2.3c0.9,0,1.6,0.2,2.3,0.5s1.3,0.9,2,1.8l0.2,0.3l3.5-2.2l-0.2-0.3
		C144.9,11.2,144.2,10.5,143.4,10z"/>
	<polygon class="st0" points="150.3,8.7 146.2,27 156.5,27 157.3,23.2 151.1,23.2 152,19.3 158.2,19.3 159,15.5 152.9,15.5 
		153.6,12.6 159.7,12.6 159.7,12.5 160.5,8.7 	"/>
	<path class="st0" d="M135.3,21.1h5.2c-0.6,0.8-1.2,1.4-2,1.8c-0.9,0.5-1.9,0.8-3,0.8c-1.4,0-2.5-0.5-3.4-1.5
		c-0.5-0.5-0.8-1.2-1-1.9l-0.4-1.5l-1.5,6.4l0.2,0.1c1.5,1.4,3.4,2.1,5.8,2.1c2.7,0,5-0.9,6.9-2.7s3.1-4.2,3.4-7.1l0.1-0.4H136
		L135.3,21.1z"/>
	<polygon class="st0" points="124.9,1.6 121.1,18.6 113.6,1.6 109.5,1.6 103.9,26.6 108.4,26.6 112.3,9.4 119.9,26.6 123.9,26.6 
		129.5,1.6 	"/>
	<polygon class="st0" points="99.6,1.6 94,26.6 98.5,26.6 104.2,1.6 	"/>
</g>
</svg>
