<svg xmlns="http://www.w3.org/2000/svg" width="512" height="512" viewBox="0 0 512 512"><path d="M256 0C114.609 0 0 114.609 0 256c0 141.391 114.609 256 256 256 141.391 0 256-114.609 256-256C512 114.609 397.391 0 256 0zm0 472c-119.297 0-216-96.703-216-216S136.703 40 256 40s216 96.703 216 216-96.703 216-216 216z"/><path d="M242.531 192.656c4.719 6.594 7.094 14.547 7.094 23.797 0 9.516-2.406 17.203-7.156 23-2.688 3.234-6.578 6.203-11.75 8.859 7.859 2.922 13.797 7.484 17.812 13.766 4 6.328 6 13.922 6 22.891 0 9.25-2.281 17.531-6.875 24.859-2.906 4.891-6.531 8.969-10.906 12.344-4.906 3.797-10.75 6.375-17.422 7.812-6.703 1.375-13.969 2.078-21.797 2.078H128V176h74.578c18.797.266 32.141 5.812 39.953 16.656zm-83.75 10.485v34.375h37.5c6.688 0 12.109-1.281 16.328-3.844 4.141-2.609 6.25-7.172 6.25-13.719 0-7.297-2.766-12.047-8.281-14.406-4.75-1.625-10.859-2.406-18.234-2.406h-33.563zm0 60.265v41.578h37.438c6.688 0 11.906-.953 15.625-2.767 6.781-3.405 10.156-9.905 10.156-19.483 0-8.142-3.281-13.703-9.844-16.734-3.656-1.688-8.781-2.562-15.406-2.594h-37.969zm195.375-44.422c7.969 3.625 14.547 9.297 19.75 17.078 4.641 6.906 7.688 14.844 9.094 23.891.781 5.281 1.109 12.891.969 22.859h-83.094c.469 11.625 4.469 19.719 11.969 24.391 4.531 2.891 10.017 4.328 16.406 4.328 6.797 0 12.328-1.766 16.547-5.297 2.344-1.906 4.375-4.517 6.172-7.938h30.438c-.797 6.812-4.5 13.797-11.062 20.892C361.125 330.359 346.812 336 328.422 336c-15.172 0-28.547-4.734-40.172-14.203-11.594-9.484-17.375-24.859-17.375-46.219 0-19.969 5.219-35.328 15.719-46 10.453-10.656 24.047-16.016 40.767-16.016 9.92 0 18.858 1.86 26.795 5.422zm-44.594 26.078c-4.22 4.422-6.845 10.359-7.938 17.906H353c-.547-8.031-3.203-14.141-7.969-18.266-4.734-4.141-10.625-6.219-17.656-6.219-7.656.001-13.609 2.22-17.813 6.579zM288 192h80v16h-80z"/></svg>