<svg width="56" height="64" xmlns="http://www.w3.org/2000/svg"><title>background</title><path fill="none" d="M-1-1h582v402H-1z"/><title>Layer 1</title><path fill="#3ab3f3" d="M10 38H8V0h7v2h-5zm46 26H20v-2h34V9.414L46.586 2H26V0h21.414L56 8.586zm-38 0H0V50h6v2H2v10h14V52H8v-2h10z"/><path fill="#3ab3f3" d="M16 51h-2v-4c0-2.757-2.243-5-5-5s-5 2.243-5 5v4H2v-4c0-3.859 3.141-7 7-7s7 3.141 7 7v4zm8-32.586l-5-5-5 5V0h10v18.414zm-5-7.828l3 3V2h-6v11.586l3-3zM30 52h20v2H30zm-10 4h26v2H20zm14-8h2v2h-2zm-4 0h2v2h-2zm8 0h12v2H38zm10 8h2v2h-2zm7-46h-9V1h2v7h7zM14 32h16v2H14zm0-4h36v2H14zm0-4h36v2H14zm24-10h12v2H38zM12 56h2v2h-2z"/></svg>