<svg width="64" height="64" xmlns="http://www.w3.org/2000/svg"><title>background</title><path fill="none" d="M-1-1h582v402H-1z"/><title>Layer 1</title><path fill="#3ab3f3" d="M2.586 56.91l11 5a1 1 0 0 0 .828 0l11-5A1 1 0 0 0 26 56V42c0-.092-.015-.181-.039-.268-.008-.029-.022-.055-.033-.083a.965.965 0 0 0-.074-.16c-.018-.03-.039-.056-.06-.083a.906.906 0 0 0-.189-.193c-.022-.017-.04-.038-.064-.054-.025-.016-.052-.024-.078-.037-.018-.009-.032-.024-.05-.032l-11-5a.995.995 0 0 0-.827 0l-11 5c-.019.009-.033.023-.051.033-.025.013-.053.021-.077.037-.024.015-.042.037-.064.054a.906.906 0 0 0-.189.193c-.021.028-.042.054-.06.083-.03.051-.053.105-.074.16-.011.028-.025.054-.033.083A1.031 1.031 0 0 0 2 42v14a1 1 0 0 0 .586.91zM24 55.356l-10 4.545-10-4.545V43.553l9.586 4.357c.263.12.564.12.827 0L24 43.553v11.803zM14 38.099L22.583 42 14 45.901 5.417 42 14 38.099zm47.928 3.55a.965.965 0 0 0-.074-.16c-.018-.03-.039-.056-.06-.083a.906.906 0 0 0-.189-.193c-.022-.017-.04-.038-.064-.054-.025-.016-.052-.024-.078-.037-.018-.009-.031-.024-.05-.032l-11-5a.995.995 0 0 0-.827 0l-11 5c-.019.009-.033.023-.051.033-.025.013-.053.021-.077.037-.024.015-.042.037-.064.054a.906.906 0 0 0-.189.193c-.021.028-.042.054-.06.083-.03.051-.053.105-.074.16-.011.028-.025.054-.033.083A1.031 1.031 0 0 0 38 42v14a1 1 0 0 0 .586.91l11 5a1 1 0 0 0 .828 0l11-5A1 1 0 0 0 62 56V42c0-.092-.015-.181-.039-.268-.008-.029-.022-.055-.033-.083zM50 38.099L58.583 42 50 45.901 41.417 42 50 38.099zm10 17.257l-10 4.545-10-4.545V43.553l9.586 4.357c.263.12.564.12.827 0L60 43.553v11.803zM20.586 22.91l11 5a1 1 0 0 0 .828 0l11-5A1 1 0 0 0 44 22V8c0-.092-.015-.181-.039-.268-.008-.029-.022-.055-.033-.083a.965.965 0 0 0-.074-.16c-.018-.03-.039-.056-.06-.083a.906.906 0 0 0-.189-.193c-.022-.017-.04-.038-.064-.054-.025-.016-.052-.024-.078-.037-.018-.009-.031-.024-.05-.032l-11-5a.995.995 0 0 0-.827 0l-11 5c-.019.008-.032.023-.05.032-.026.013-.053.021-.078.037-.024.015-.042.037-.064.054a.906.906 0 0 0-.189.193c-.021.028-.042.054-.06.083-.03.051-.053.105-.074.16-.011.028-.025.054-.033.083A1.045 1.045 0 0 0 20 8v14a1 1 0 0 0 .586.91zM42 21.356l-10 4.545-10-4.545V9.553l9.586 4.357c.263.12.564.12.827 0L42 9.553v11.803zM32 4.099L40.583 8 32 11.901 23.417 8 32 4.099zM50 12h2v2h-2zm-4 0h2v2h-2zm8 0h2v2h-2zm4 0h2v2h-2zm0 4h2v2h-2zm0 4h2v2h-2zm0 4h2v2h-2zm0 4h2v2h-2zm0 4h2v2h-2zm0 4h2v2h-2zM12 12h2v2h-2zm4 0h2v2h-2zm-8 0h2v2H8zm-4 0h2v2H4zm0 4h2v2H4zm0 4h2v2H4zm0 4h2v2H4zm0 4h2v2H4zm0 4h2v2H4zm0 4h2v2H4zm23 22h2v2h-2zm4 0h2v2h-2zm4 0h2v2h-2z"/></svg>