<svg id="Layer_1" xmlns="http://www.w3.org/2000/svg" viewBox="0 0 160.7 27.6"><style>.st0{fill:#fff}</style><path class="st0" d="M44.1 4.8L40.4 8c-.7-.8-1.5-1.5-2.5-2s-2.2-.7-3.4-.7c-1.7 0-3.5.4-5.1 1.3-1.7.9-3 2.1-4 3.6s-1.6 3-1.7 4.7c-.2 2.3.4 4.2 1.9 5.7 1.4 1.5 3.4 2.3 5.8 2.3 2.6 0 5-.8 7-2.3l2.5 3.7c-3 2-6.4 3-10.2 3-2.6 0-4.8-.5-6.6-1.5S21 23.3 20 21.4c-.9-1.9-1.3-4-1.1-6.3.2-2.4 1.1-4.7 2.6-7 1.5-2.2 3.5-4 5.8-5.2C29.7 1.6 32.2 1 34.9 1c3.6-.1 6.7 1.2 9.2 3.8zm6.2-3.2H55L52.9 11h8.6l2.1-9.4h4.7l-5.6 25H58l2.5-11.4h-8.6l-2.6 11.4h-4.7l5.7-25zm32.2 0h4l4 25h-4.6l-.9-5.3h-9.9l-3.3 5.3h-5l15.7-25zm1.8 15.2L83 8.6l-5.1 8.2h6.4zM99.6 1.6h4.6l-5.7 25H94l5.6-25zm9.9 0h4.1l7.5 17 3.8-17h4.6l-5.6 25h-4l-7.6-17.2-3.9 17.2h-4.5l5.6-25zm50.2 10.9l.8-3.8h-10.2L146.2 27h10.3l.8-3.8h-6.2l.9-3.9h6.2l.8-3.8h-6.1l.7-2.9h6.1v-.1zm-24.4 8.6h5.2c-.6.8-1.2 1.4-2 1.8-.9.5-1.9.8-3 .8-1.4 0-2.5-.5-3.4-1.5-.5-.5-.8-1.2-1-1.9l-.4-1.5-1.5 6.4.2.1c1.5 1.4 3.4 2.1 5.8 2.1 2.7 0 5-.9 6.9-2.7s3.1-4.2 3.4-7.1l.1-.4H136l-.7 3.9zm8.1-11.1c-.7-.5-1.6-1-2.5-1.3s-1.9-.4-3-.4c-1.7 0-3.4.4-4.9 1.2l-.1.1-1.6 6.8 1-1.4c.1-.2.3-.4.5-.6 1.4-1.6 2.9-2.3 4.9-2.3.9 0 1.6.2 2.3.5s1.3.9 2 1.8l.2.3 3.5-2.2-.2-.3c-.6-1-1.3-1.7-2.1-2.2zM12 8.7l3 3.3-1.1 5.3-5.1-5.7L6 14.2H0l6.1-5.6L3 5.2 4.1 0l5.1 5.6L12 3h6l-6 5.7z"/></svg>