<svg id="Layer_1" xmlns="http://www.w3.org/2000/svg" viewBox="0 0 160.7 27.6"><style>.st0{fill:#fff}</style><path class="st0" d="M82.5 1.6l-15.7 25h5l3.3-5.3H85l.9 5.3h4.6l-4-25h-4zm-4.6 15.2L83 8.6l1.3 8.2h-6.4zM12 3L9.2 5.6 4.1 0 3 5.2l3.1 3.4L0 14.2h6l2.8-2.6 5.1 5.7L15 12l-3-3.3L18 3zm51.6-1.4L61.5 11h-8.6L55 1.6h-4.7l-5.7 25h4.7l2.6-11.4h8.6L58 26.6h4.7l5.6-25zm-38.2 8.6c1-1.5 2.3-2.7 4-3.6 1.6-.9 3.4-1.3 5.1-1.3 1.2 0 2.4.2 3.4.7s1.8 1.2 2.5 2l3.7-3.2C41.6 2.2 38.5.9 34.9 1c-2.7 0-5.2.6-7.6 1.9-2.3 1.2-4.3 3-5.8 5.2-1.5 2.3-2.4 4.6-2.6 7-.2 2.3.2 4.4 1.1 6.3 1 1.9 2.3 3.4 4.1 4.4s4 1.5 6.6 1.5c3.8 0 7.2-1 10.2-3l-2.5-3.7c-2 1.5-4.4 2.3-7 2.3-2.4 0-4.4-.8-5.8-2.3-1.5-1.5-2.1-3.4-1.9-5.7.1-1.7.7-3.2 1.7-4.7zm118-.2c-.7-.5-1.6-1-2.5-1.3-.9-.3-1.9-.4-3-.4-1.7 0-3.4.4-4.9 1.2l-.1.1-1.6 6.8 1-1.4c.1-.2.3-.4.5-.6 1.4-1.6 2.9-2.3 4.9-2.3.9 0 1.6.2 2.3.5s1.3.9 2 1.8l.2.3 3.5-2.2-.2-.3c-.6-1-1.3-1.7-2.1-2.2zm6.9-1.3L146.2 27h10.3l.8-3.8h-6.2l.9-3.9h6.2l.8-3.8h-6.1l.7-2.9h6.1v-.1l.8-3.8zm-15 12.4h5.2c-.6.8-1.2 1.4-2 1.8-.9.5-1.9.8-3 .8-1.4 0-2.5-.5-3.4-1.5-.5-.5-.8-1.2-1-1.9l-.4-1.5-1.5 6.4.2.1c1.5 1.4 3.4 2.1 5.8 2.1 2.7 0 5-.9 6.9-2.7s3.1-4.2 3.4-7.1l.1-.4H136l-.7 3.9zM124.9 1.6l-3.8 17-7.5-17h-4.1l-5.6 25h4.5l3.9-17.2 7.6 17.2h4l5.6-25zm-25.3 0l-5.6 25h4.5l5.7-25z"/></svg>