<svg width="512" height="512" xmlns="http://www.w3.org/2000/svg"><title/><title>background</title><path fill="none" d="M-1-1h582v402H-1z"/><title>Layer 1</title><circle stroke-width="9.92" stroke-linejoin="round" stroke="#3ab3f3" fill="none" r="83.73" cy="256.54" cx="208.46" class="cls-1"/><path stroke-width="9.92" stroke-linejoin="round" stroke="#3ab3f3" fill="none" d="M256 187.68a83.73 83.73 0 1 1 .83 138.32" class="cls-1"/><circle stroke-width="9.92" stroke-linejoin="round" stroke="#3ab3f3" fill="none" r="52.38" cy="256.54" cx="208.46" class="cls-1"/><path stroke-width="9.92" stroke-linejoin="round" stroke="#3ab3f3" fill="none" d="M256 45C139.17 45 44.46 139.71 44.46 256.54a210.89 210.89 0 0 0 62 149.6H71m185 61.94c116.83 0 211.54-94.71 211.54-211.54a210.88 210.88 0 0 0-62-149.61v33.6m.01-33.6h38.91M106.43 406.14V373" class="cls-1"/></svg>