<svg height="64" viewBox="0 0 64 64" width="64" xmlns="http://www.w3.org/2000/svg"><path d="M32 5c14.888 0 27 12.112 27 27S46.888 59 32 59 5 46.888 5 32 17.112 5 32 5m0-3C15.433 2 2 15.432 2 32c0 16.568 13.433 30 30 30s30-13.432 30-30C62 15.432 48.567 2 32 2z"/><path d="M43.987 28.745L28.013 18.232C25.256 16.418 23 17.635 23 20.935V43.06c0 3.3 2.259 4.521 5.021 2.714L43.98 35.33c2.761-1.809 2.764-4.771.007-6.585zm-2.129 4.379l-14.185 9.283c-.92.603-1.673.196-1.673-.904V22.491c0-1.1.752-1.505 1.671-.9l14.19 9.338c.919.604.918 1.592-.003 2.195z"/></svg>