<svg width="512" height="512" xmlns="http://www.w3.org/2000/svg"><title>background</title><path fill="none" d="M-1-1h582v402H-1z"/><title>Layer 1</title><path fill="#3ab3f3" d="M169.209 348.769H50.404c-13.543 0-24.56-11.021-24.56-24.566v-71.867c0-13.548 11.017-24.57 24.56-24.57h118.805c33.368 0 60.516 27.142 60.516 60.504 0 33.358-27.148 60.499-60.516 60.499zM50.404 241.705c-5.856 0-10.619 4.769-10.619 10.63v71.867c0 5.859 4.763 10.626 10.619 10.626h118.805c25.682 0 46.575-20.888 46.575-46.56 0-25.674-20.894-46.563-46.575-46.563H50.404z"/><path fill="#3ab3f3" d="M155.279 288.269c0 10.329 8.37 18.702 18.698 18.702 10.326 0 18.698-8.373 18.698-18.702 0-10.319-8.372-18.692-18.698-18.692-10.328-.001-18.698 8.372-18.698 18.692zm323.906-142.626a6.97 6.97 0 0 1-6.97-6.971V97.603c0-9.095-7.404-16.493-16.507-16.493H96.371c-9.094 0-16.491 7.398-16.491 16.493v11.53a6.971 6.971 0 1 1-13.941 0v-11.53c0-16.781 13.651-30.435 30.432-30.435h359.337c16.789 0 30.447 13.653 30.447 30.435v41.069a6.971 6.971 0 0 1-6.97 6.971z"/><path fill="#3ab3f3" d="M455.708 444.832H96.371c-16.78 0-30.432-13.649-30.432-30.427v-33.987a6.97 6.97 0 1 1 13.941 0v33.987c0 9.09 7.397 16.486 16.491 16.486h359.337c9.103 0 16.507-7.396 16.507-16.486V145.643H96.371c-9.094 0-16.491 7.397-16.491 16.489v34.226a6.971 6.971 0 1 1-13.941 0v-34.226c0-16.779 13.651-30.431 30.432-30.431h382.813a6.971 6.971 0 0 1 6.971 6.971v275.733c0 16.778-13.658 30.427-30.447 30.427z"/></svg>