<?xml version="1.0" encoding="utf-8"?>
<!-- Generator: Adobe Illustrator 22.0.0, SVG Export Plug-In . SVG Version: 6.00 Build 0)  -->
<svg version="1.1" id="Layer_1" xmlns="http://www.w3.org/2000/svg" xmlns:xlink="http://www.w3.org/1999/xlink" x="0px" y="0px"
	 viewBox="0 0 841.9 595.3" style="enable-background:new 0 0 841.9 595.3;" xml:space="preserve">
<style type="text/css">
	.st0{fill:#FFFFFF;}
</style>
<path class="st0" d="M595.3,143.2l-3.7,3.2c-0.7-0.8-1.5-1.5-2.5-2s-2.2-0.7-3.4-0.7c-1.7,0-3.5,0.4-5.1,1.3c-1.7,0.9-3,2.1-4,3.6
	c-1,1.5-1.6,3-1.7,4.7c-0.2,2.3,0.4,4.2,1.9,5.7c1.4,1.5,3.4,2.3,5.8,2.3c2.6,0,5-0.8,7-2.3l2.5,3.7c-3,2-6.4,3-10.2,3
	c-2.6,0-4.8-0.5-6.6-1.5c-1.8-1-3.1-2.5-4.1-4.4c-0.9-1.9-1.3-4-1.1-6.3c0.2-2.4,1.1-4.7,2.6-7c1.5-2.2,3.5-4,5.8-5.2
	c2.4-1.3,4.9-1.9,7.6-1.9C589.7,139.3,592.8,140.6,595.3,143.2z M601.5,140h4.7l-2.1,9.4h8.6l2.1-9.4h4.7l-5.6,25h-4.7l2.5-11.4
	h-8.6l-2.6,11.4h-4.7L601.5,140z M633.7,140h4l4,25h-4.6l-0.9-5.3h-9.9L623,165H618L633.7,140z M635.5,155.2l-1.3-8.2l-5.1,8.2
	H635.5z M650.8,140h4.6l-5.7,25h-4.5L650.8,140z M660.7,140h4.1l7.5,17l3.8-17h4.6l-5.6,25h-4l-7.6-17.2l-3.9,17.2h-4.5L660.7,140z
	 M710.9,150.9l0.8-3.8h-10.2l-4.1,18.3h10.3l0.8-3.8h-6.2l0.9-3.9h6.2l0.8-3.8h-6.1l0.7-2.9H710.9z M686.5,159.5h5.2
	c-0.6,0.8-1.2,1.4-2,1.8c-0.9,0.5-1.9,0.8-3,0.8c-1.4,0-2.5-0.5-3.4-1.5c-0.5-0.5-0.8-1.2-1-1.9l-0.4-1.5l-1.5,6.4l0.2,0.1
	c1.5,1.4,3.4,2.1,5.8,2.1c2.7,0,5-0.9,6.9-2.7c1.9-1.8,3.1-4.2,3.4-7.1l0.1-0.4h-9.6L686.5,159.5z M694.6,148.4
	c-0.7-0.5-1.6-1-2.5-1.3c-0.9-0.3-1.9-0.4-3-0.4c-1.7,0-3.4,0.4-4.9,1.2l-0.1,0.1l-1.6,6.8l1-1.4c0.1-0.2,0.3-0.4,0.5-0.6
	c1.4-1.6,2.9-2.3,4.9-2.3c0.9,0,1.6,0.2,2.3,0.5c0.7,0.3,1.3,0.9,2,1.8l0.2,0.3l3.5-2.2l-0.2-0.3
	C696.1,149.6,695.4,148.9,694.6,148.4z M563.2,147.1l3,3.3l-1.1,5.3L560,150l-2.8,2.6h-6l6.1-5.6l-3.1-3.4l1.1-5.2l0,0l5.1,5.6
	l2.8-2.6h6L563.2,147.1z"/>
</svg>
