<?xml version="1.0" encoding="utf-8"?>
<!-- Generator: Adobe Illustrator 22.0.0, SVG Export Plug-In . SVG Version: 6.00 Build 0)  -->
<svg version="1.1" id="Layer_1" xmlns="http://www.w3.org/2000/svg" xmlns:xlink="http://www.w3.org/1999/xlink" x="0px" y="0px"
	 viewBox="0 0 160.7 27.6" style="enable-background:new 0 0 160.7 27.6;" xml:space="preserve">
<style type="text/css">
	.st0{fill:#FFFFFF;}
</style>
<path class="st0" d="M44.1,4.8L40.4,8c-0.7-0.8-1.5-1.5-2.5-2s-2.2-0.7-3.4-0.7c-1.7,0-3.5,0.4-5.1,1.3c-1.7,0.9-3,2.1-4,3.6
	s-1.6,3-1.7,4.7c-0.2,2.3,0.4,4.2,1.9,5.7c1.4,1.5,3.4,2.3,5.8,2.3c2.6,0,5-0.8,7-2.3l2.5,3.7c-3,2-6.4,3-10.2,3
	c-2.6,0-4.8-0.5-6.6-1.5S21,23.3,20,21.4c-0.9-1.9-1.3-4-1.1-6.3c0.2-2.4,1.1-4.7,2.6-7c1.5-2.2,3.5-4,5.8-5.2
	C29.7,1.6,32.2,1,34.9,1C38.5,0.9,41.6,2.2,44.1,4.8z M50.3,1.6H55L52.9,11h8.6l2.1-9.4h4.7l-5.6,25H58l2.5-11.4h-8.6l-2.6,11.4
	h-4.7L50.3,1.6z M82.5,1.6h4l4,25h-4.6L85,21.3h-9.9l-3.3,5.3h-5L82.5,1.6z M84.3,16.8L83,8.6l-5.1,8.2H84.3z M99.6,1.6h4.6l-5.7,25
	H94L99.6,1.6z M109.5,1.6h4.1l7.5,17l3.8-17h4.6l-5.6,25h-4l-7.6-17.2l-3.9,17.2h-4.5L109.5,1.6z M159.7,12.5l0.8-3.8h-10.2
	L146.2,27h10.3l0.8-3.8h-6.2l0.9-3.9h6.2l0.8-3.8h-6.1l0.7-2.9h6.1V12.5z M135.3,21.1h5.2c-0.6,0.8-1.2,1.4-2,1.8
	c-0.9,0.5-1.9,0.8-3,0.8c-1.4,0-2.5-0.5-3.4-1.5c-0.5-0.5-0.8-1.2-1-1.9l-0.4-1.5l-1.5,6.4l0.2,0.1c1.5,1.4,3.4,2.1,5.8,2.1
	c2.7,0,5-0.9,6.9-2.7s3.1-4.2,3.4-7.1l0.1-0.4H136L135.3,21.1z M143.4,10c-0.7-0.5-1.6-1-2.5-1.3s-1.9-0.4-3-0.4
	c-1.7,0-3.4,0.4-4.9,1.2l-0.1,0.1l-1.6,6.8l1-1.4c0.1-0.2,0.3-0.4,0.5-0.6c1.4-1.6,2.9-2.3,4.9-2.3c0.9,0,1.6,0.2,2.3,0.5
	s1.3,0.9,2,1.8l0.2,0.3l3.5-2.2l-0.2-0.3C144.9,11.2,144.2,10.5,143.4,10z M12,8.7l3,3.3l-1.1,5.3l-5.1-5.7L6,14.2H0l6.1-5.6L3,5.2
	L4.1,0l0,0l5.1,5.6L12,3h6L12,8.7z"/>
</svg>
