<svg xmlns="http://www.w3.org/2000/svg" viewBox="0 0 3118.1 1006.3"><path d="M1047.5 624.9h-79l-25.9 60.9h-63.7l141.8-297.4h53.7l39 297.4h-60.7l-5.2-60.9zm-57.6-50h53.5l-8.4-105.4-45.1 105.4zm260.4 2.2h-29.8l-18.8 108.7h-58.6l51.5-297.4 89.9.2c13.3.4 25.2 2.7 35.4 6.9 10.3 4.2 18.9 10.1 25.7 17.7 6.9 7.6 11.8 16.7 14.9 27.4 3.1 10.7 4.1 22.7 3 36.1-1.6 19.2-6.9 36.1-15.8 50.7-8.9 14.6-22.2 26-39.7 34.3l29.8 120.9v3.3h-62.9l-24.6-108.8zm-21.2-50l30.8.4c6.7-.1 12.6-1.4 17.8-3.9 5.2-2.5 9.6-5.8 13.3-9.9 3.7-4.2 6.6-9 8.9-14.5 2.2-5.5 3.8-11.4 4.6-17.7.7-4.8 1-9.6.9-14.5-.1-4.9-.9-9.4-2.5-13.5s-4-7.5-7.3-10.2c-3.3-2.7-7.8-4.3-13.7-4.7l-37.4-.2-15.4 88.7zm140.5 158.7l51.5-297.4 86.2.2c12.5.3 24 2.1 34.4 5.4 10.4 3.3 19.3 8.3 26.6 14.8 7.3 6.5 12.7 14.7 16.3 24.6 3.6 9.9 4.9 21.5 4 34.8-1.2 15.7-5.9 28.9-14.1 39.7-8.2 10.8-19.3 19.5-33.3 26 6.3 2.6 11.4 6.2 15.3 10.7 3.9 4.6 7 9.7 9.1 15.4 2.1 5.7 3.5 11.7 4.1 18 .6 6.3.7 12.5.3 18.6-1.1 14.6-4.3 27.4-9.7 38.6-5.4 11.2-12.5 20.5-21.3 28.1-8.9 7.6-19.3 13.2-31.3 17-12 3.7-25.1 5.5-39.4 5.4h-98.7zm81.1-129.3l-13.9 79.5 34.3.4c6-.1 11.4-1.2 16.1-3.3 4.8-2 8.8-4.9 12.3-8.5 3.4-3.6 6.2-7.9 8.3-12.8 2.1-4.9 3.6-10.2 4.4-15.9.5-4.2.8-8.6.9-13.1.1-4.5-.5-8.6-1.8-12.4-1.3-3.7-3.4-6.9-6.3-9.4s-7-4-12.4-4.4l-41.9-.1zm7.4-43.7l27.8.4c12.3-.3 22.1-3.7 29.4-10.4 7.4-6.7 11.8-16.1 13.5-28.2.7-5 .8-9.7.5-14-.3-4.3-1.4-8-3.2-11.1-1.8-3.1-4.4-5.6-7.9-7.6-3.5-1.9-7.9-3-13.4-3.3l-33.7-.2-13 74.4zm366.4 50.8c-1.6 11-4.1 21.9-7.4 32.6-3.3 10.7-7.4 20.7-12.3 30.1s-10.7 18-17.4 25.9c-6.7 7.9-14.3 14.7-22.8 20.3-8.5 5.7-18 10-28.4 13.1-10.4 3.1-21.8 4.5-34.2 4.2-11.8-.3-22.4-2.1-31.6-5.5-9.2-3.4-17.2-8-24.1-13.9-6.9-5.9-12.6-12.7-17.1-20.6-4.5-7.9-7.9-16.5-10.3-25.7-2.4-9.3-3.8-19-4.3-29.2s0-20.6 1.3-31l7.6-49.4c1.6-11.2 4.1-22.2 7.4-33 3.3-10.8 7.4-21.1 12.3-30.8s10.7-18.7 17.4-27c6.7-8.2 14.3-15.3 22.9-21.2 8.6-5.9 18.1-10.5 28.7-13.7 10.5-3.2 22.2-4.7 34.8-4.4 12 .3 22.6 2.2 31.9 5.8 9.3 3.6 17.3 8.5 24 14.7 6.7 6.2 12.3 13.4 16.6 21.8 4.4 8.3 7.7 17.2 9.9 26.8 2.2 9.5 3.5 19.5 3.9 29.9.3 10.4-.2 20.8-1.5 31.1l-7.3 49.1zm-51.5-50c.5-4.6 1.1-9.7 1.6-15.3.5-5.6.8-11.3.7-17.1-.1-5.8-.6-11.4-1.5-17-1-5.5-2.7-10.4-5.1-14.8-2.5-4.4-5.8-7.9-10-10.6-4.2-2.7-9.6-4.2-16.1-4.5-7.2-.3-13.6.7-19.2 2.9s-10.5 5.3-14.7 9.3c-4.2 4-7.8 8.7-10.7 14.1-2.9 5.4-5.4 11.1-7.6 17.1-2.1 6-3.8 12.1-5.1 18.4-1.3 6.3-2.3 12.3-3.2 18l-7.1 50c-.5 4.6-1.1 9.7-1.5 15.2-.5 5.5-.6 11-.4 16.5.2 5.5.9 10.9 2 16.1 1.2 5.2 3 9.9 5.5 13.9s5.9 7.3 10.1 9.9c4.2 2.6 9.6 4 16.1 4.3 10.5.4 19.2-1.7 26.2-6.4s12.8-10.8 17.3-18.4c4.5-7.6 7.9-15.9 10.2-25 2.3-9.1 4.1-17.9 5.3-26.3l7.2-50.3zm140.5 122.3h102.3l-8.8 49.8h-160.7l51.5-297.4h58.6l-42.9 247.6zm300.7-78.8h-90.7l-13.7 78.8h107.4l-8.8 49.8h-165.9l51.5-297.4h165.6l-8.8 50H2144l-12.3 70.3h90.9l-8.4 48.5zm263.7-118.7h-71.3l-42.9 247.3h-58.8l42.9-247.3h-70.3l8.8-50h200.4l-8.8 50zM2409.5 671c0-2.7.5-5.2 1.4-7.4.9-2.3 2.2-4.2 3.9-5.9 1.6-1.7 3.6-3 5.9-4 2.3-1 4.7-1.4 7.4-1.4 2.5 0 4.9.4 7.1 1.3 2.2.8 4.2 2 5.8 3.6 1.6 1.5 2.9 3.4 3.9 5.5s1.4 4.5 1.4 7c0 2.7-.5 5.2-1.4 7.4-.9 2.3-2.2 4.2-3.9 5.9-1.7 1.6-3.7 3-6 3.9-2.3 1-4.8 1.4-7.4 1.4-2.5 0-4.9-.4-7.1-1.2-2.2-.8-4.1-2-5.7-3.5-1.6-1.5-2.9-3.4-3.9-5.5-.8-2.2-1.3-4.6-1.4-7.1zm177.3 15.9h-32.2L2525.5 576l-19.3 110.9h-33l29-167.3h32.3l29.3 111 19.3-111h32.9l-29.2 167.3zm123.8-72.4h-51l-7.7 44.4h60.5l-4.9 28h-93.3l29-167.3h93.2l-4.9 28.2h-60.1l-6.9 39.5h51.1l-5 27.2zm148.4-66.8h-40.1l-24.1 139.2h-33.1l24.1-139.2h-39.5l4.9-28.2H2864l-5 28.2zm-2138.6 189h-422c-.9-.4-1.7-.8-2.6-1.1-12.5-4.2-20.2-12.6-23.2-25.7 4.3-.3 9.4-.2 9.6-5.4.3-6.4-5.6-5.6-9.8-6.1V375.9h9.7c3.4 0 5.4-1.5 5.4-5s-2-5.1-5.4-5.2h-9.4c2.1-15.7 15.8-27.9 31.3-27.9 26.7-.1 53.3 0 80 0h330.5c18.4 0 32.9 14.5 32.9 32.8v71.2h-27.8c-.5-4.3 1.2-10.4-5.5-10.5-6.9-.1-4.6 6.3-5.8 10.7h-5.4c-22.8 0-45.7-.1-68.5 0-4 0-8 .2-11.9 1.1-26.6 6-44.9 29.2-45.1 57.2-.2 24.5-.2 49 0 73.5.2 21.3 9.7 37.2 28.7 47.3 9.2 4.8 19.1 6.4 29.4 6.5 22.5.1 45 0 67.5 0h5.8c0 3.8-.1 7.1 0 10.4.1 3.2 1.5 5.6 5 5.6 3.7 0 5.4-2.3 5.5-5.7.2-3.3 0-6.6 0-10h27.8c.1.9.2 1.6.2 2.2 0 25.5.1 51-.1 76.5 0 2.7-.8 5.6-1.7 8.2-4.1 12.1-13.2 18.6-25.1 21.9zm-329-111v31.6h24.1V627h17.6v30.3h24.3v-30.9c9-1.3 17.6-1.9 25.9-3.8 17-3.8 31.7-10.9 39.2-28.2 4.2-9.8 4-20 3.9-30.3 0-8.6-2.7-16.3-9.2-21.8-6.4-5.4-13.8-9.6-20.7-14.2-.2.1.5-.4 1.1-.9 18.1-13.6 21.5-38.8 7.8-56.9-6.7-8.9-16.4-12.8-26.5-15.6-6.9-1.9-14.2-2.7-21.8-4.1v-36.8h-24.4v35.7h-17.4v-35.7h-24.1v36.9h-45.4v25.7h15.4c9.8.1 13.9 4.2 13.9 14v79.5c0 6 .1 12 0 18-.2 6.7-2.5 8.9-9.2 8.9h-7c-11.1.3-8.8-1.9-11 9.1-1.2 6.4-1.9 12.8-2.8 19.6 15.8.2 30.6.2 46.3.2zm328 84c0-8.9-.1-17.3 0-25.6 0-3.8-1.2-6.9-5.3-7-4.3-.1-5.4 3.1-5.4 6.8v14.7h-9.5c-3.8 0-6.7 1.3-6.8 5.5-.1 4 3 5.4 6.4 5.5 6.7.2 13.4.1 20.6.1zm-308.5-11h-17.5c-3.8 0-6.8 1.3-7 5.4-.1 4.3 3.2 5.6 6.8 5.6 11.8.1 23.6.1 35.4 0 3.5 0 6.5-1.7 6.5-5.4 0-3.9-2.9-5.6-6.8-5.6h-17.4zm153.1 0h-18c-3.6 0-6.4 1.4-6.6 5.2-.2 4 2.7 5.7 6.1 5.7 12.1.2 24.3.1 36.4 0 3.5 0 6.4-1.9 6.1-5.7-.2-3.6-2.9-5.3-6.7-5.2H564zm-229.6 11c5.7 0 11.3.1 17 0 3.7-.1 7.3-1 7.1-5.7-.2-4.3-3.3-5.2-7-5.2-11.3 0-22.7.1-34 0-3.9 0-7.3.9-7.4 5.4-.1 4.6 3.5 5.6 7.3 5.6 5.7-.1 11.3-.1 17-.1zm153-11h-18c-3.7 0-6.3 1.6-6.4 5.5-.1 3.6 2.5 5.4 5.9 5.5 12.2.1 24.3.2 36.5 0 3.4 0 6.3-1.6 6.1-5.7-.2-4-3-5.2-6.6-5.2-5.8-.1-11.7-.1-17.5-.1zm152.5 0h-17.5c-3.7 0-6.3 1.6-6.4 5.4-.1 3.7 2.6 5.4 5.9 5.5 12.2.2 24.3.2 36.5 0 3.4 0 6.3-1.6 6.1-5.7-.2-4-3-5.2-6.6-5.2h-18zM492.7 375.8c6.2 0 12.3-.1 18.5 0 3.7.1 6-1.7 5.9-5.1-.1-3.3-2.4-5.2-6.1-5.1-12.2.1-24.3.1-36.5 0-3.6 0-5.9 1.4-6.1 5-.1 4.1 2.5 5.3 6.2 5.2 6.1-.1 12.1 0 18.1 0zm153 0c6 0 12-.1 18 0 3.8.1 6.4-1.4 6.3-5.2-.1-3.4-2.5-5.1-6.1-5.1-12.2.1-24.3.1-36.5 0-3.6 0-5.9 1.5-6 5.1-.1 3.8 2.2 5.2 5.8 5.2h18.5zm-306.5 0h19.5c3.5 0 5.5-2 5.4-5.1-.1-3-2-5.1-5.6-5.1-12.5.1-25 0-37.5 0-3.4 0-5.5 1.7-5.6 5-.1 3.6 2.1 5.3 5.7 5.2h18.1zm77.2 0c6 0 12-.1 18 0 3.4.1 6-.9 6.1-4.8.1-4.1-2.4-5.5-6.1-5.4-12.1 0-24.3.1-36.4 0-3.6 0-5.9 1.6-6 5.1 0 3.5 2.2 5.2 5.9 5.1 6.1-.1 12.3 0 18.5 0zm152.7 0c6.2 0 12.3-.1 18.5 0 3.5 0 5.9-1.2 5.9-5.1 0-3.8-2.4-5.2-5.9-5.2-12.3 0-24.6.1-36.9 0-3.8 0-5.7 2-5.7 5.4.1 3.2 2.2 4.9 5.7 4.9 6.1-.1 12.3 0 18.4 0zm139.8 0c0 4.4-.5 8.3.2 11.9.4 1.9 3 4.5 4.7 4.6 1.8.1 5.2-2.4 5.3-3.9.6-7.5.3-15.1.3-22.7-7.3 0-13.9.1-20.6 0-3.7 0-6.3 1.4-6.2 5.3 0 3.7 2.4 5.1 6 5 3-.3 6.1-.2 10.3-.2z" fill="#08589C"/><path fill="#07589C" d="M768.5 466.8v141.6c-1.6.1-2.9.2-4.2.2H632.4c-15.4 0-28.6-9.6-32.3-23.3-.6-2-.7-4.3-.7-6.4v-76.4c0-19.5 14.5-35.8 33.8-36 44.6-.5 89.3-.1 133.9-.1.3 0 .6.2 1.4.4zm-107.6 48.8c-13.6 0-24.5 10.7-24.6 24.2 0 13.5 10.6 24.4 24.2 24.6 13.1.2 24.7-11.1 24.8-24.3.2-13.2-11-24.4-24.4-24.5z"/><path fill="#0D599D" d="M416.5 597v-49c17-1.6 33.5-1.3 49.5 4.9 8.5 3.3 14.1 11 14.1 19.2 0 9-4.9 15.9-13.6 19.6-9 3.8-18.4 5.4-28.1 5.4-7.3-.1-14.5-.1-21.9-.1z"/><path fill="#0F599D" d="M416.4 523.4v-45.2c13.9-.4 27.6-.9 40.7 4.4 9 3.7 12.1 11.3 12.2 18.9.2 8.5-5.8 15.4-15 18.3-12.1 3.8-24.7 4.2-37.9 3.6z"/></svg>