<svg width="111" height="111" viewBox="0 0 111 111" xmlns="http://www.w3.org/2000/svg"><title>Group Copy</title><g fill="none" fill-rule="evenodd"><path fill="#FF4D19" d="M0 110.961h110.961V0H0z"/><path d="M37.526 68.123l-5.237-12.862c3.155-1.225 5.39-3.797 5.39-8.636 0-4.9-2.94-8.85-10.657-8.85H13.67v6.829h12.8c2.45 0 3.737.49 3.737 2.389 0 1.929-.95 2.664-3.308 2.664h-6.186v-2.818H13.67v21.223h7.043v-11.79h4.165l4.686 11.882h7.962m26.368-11.147h-.337L47.51 37.805h-6.278v30.288h6.982V50.33h.429l15.036 17.762h7.411V37.805h-7.196zm26.949-6.401c-4.38-1.286-9.218-1.225-9.432-3.736h-6.89c.152 5.114 2.602 6.89 6.982 8.207 4.47 1.287 9.493 1.379 9.493 3.798 0 1.93-1.225 2.603-4.471 2.603H75.439v6.676h10.933c7.135 0 11.729-3.246 11.729-9.218-.061-5.451-3.154-7.166-7.258-8.33m5.022-12.862h-9.493c-6.462 0-10.719 2.389-11.73 6.676v.215h21.223v-6.89z" fill="#FFF"/></g></svg>