<svg id="图层_1" data-name="图层 1" xmlns="http://www.w3.org/2000/svg" viewBox="0 0 210 30"><defs><style>.cls-1,.cls-2{fill:#4e5565}.cls-2{opacity:.9}.cls-3{fill:#ff3c00}</style></defs><title>coinjinja-dark-preopen</title><path class="cls-1" d="M59.55 8.61v12.37h2.95V8.61h-2.95zm-17.81.64a8.88 8.88 0 0 0-3.83-.88c-1.88 0-7 .65-7 6.92 0 4 3.2 5.94 6.62 5.94a8.89 8.89 0 0 0 3.68-.74l.19-1.71a4.82 4.82 0 0 1-3.32 1.36c-2.14 0-4.2-1.61-4.2-5.15S35.78 9.5 38 9.5a3.67 3.67 0 0 1 3.06 1.61zm8.51-.88c-5.28 0-7 3.89-7 6.43 0 5.15 3.91 6.43 6.67 6.43 5.2 0 7.09-3.69 7.09-6.48-.01-4.39-3.13-6.38-6.76-6.38zm-.34 11.77c-1.51 0-3.69-.88-3.69-5.38 0-2.54 1.27-5.36 3.92-5.36s3.91 2.31 3.91 5.12-1.17 5.62-4.14 5.62zM80.18 8.59v12.35A1.85 1.85 0 0 1 78.77 23c.12.33.26.9.26.9 1.42-.22 4-.9 4-4.4s.14-10.91.14-10.91z"/><path class="cls-2" d="M107.28 8.59v12.35a1.85 1.85 0 0 1-1.4 2.06c.12.33.26.9.26.9 1.42-.22 4-.9 4-4.4s.14-10.91.14-10.91z"/><path class="cls-1" d="M93.05 8.59l-.23 12.35h1.61V12.3l7.81 8.64h1.43l.29-12.35h-1.64l.15 8.55-7.8-8.55h-1.62zm-27.01 0l-.23 12.35h1.61V12.3l7.81 8.64h1.43l.29-12.35h-1.64l.15 8.55-7.8-8.55h-1.62zm52.5-.03h-1.38L112 20.94h1.74l1.26-3.61h4.13l1.26 3.61h3.12zm-3.06 7.68l1.66-4.19 1.6 4.19zM86.55 8.61v12.37h2.95l.01-12.36-2.96-.01z"/><path class="cls-3" d="M21.14 13.85a2.75 2.75 0 0 0-2.22-2.7l-.59-4h.92A2.75 2.75 0 0 0 22 4.38H0a2.75 2.75 0 0 0 2.75 2.75h.92l-.6 4a2.75 2.75 0 0 0-2.22 2.7h1.83L.7 27.21a2.75 2.75 0 0 0 3.12-2.32l1.64-11h11.08l1.64 11a2.75 2.75 0 0 0 3.12 2.32l-2-13.36zM6.46 7.13h3.16v4H5.87zm5.92 4v-4h3.17l.59 4z"/><path class="cls-1" d="M146.05 10.5h.4a1.34 1.34 0 1 1 1.28 1 1.46 1.46 0 0 1-.46-.07v.13a11.92 11.92 0 0 1-1.79 4.43 9.19 9.19 0 0 1-4.73 3.2l-.82-.9a7.94 7.94 0 0 0 4.68-2.88 9.12 9.12 0 0 0 1.57-3.91h-7.37v-1.08a11.87 11.87 0 0 0 1.2.07zm2.47-.4a.79.79 0 1 0-1.58 0 .79.79 0 0 0 1.58 0zm2.48 8.23a1.32 1.32 0 0 0 .12-.59v-6.86a9.21 9.21 0 0 0-.1-1.09h1.18a7.62 7.62 0 0 0-.08 1.09v6.8a12.94 12.94 0 0 0 6.56-4.09l.54.84a14 14 0 0 1-7 4.28 1.7 1.7 0 0 0-.5.22zm18.18-6.84a8.47 8.47 0 0 0 1-.07v1h-2.88c0 1.8.07 4.19.08 5.69 0 .62-.37 1-1.09 1S165 19 164.38 19l-.08-1a11.32 11.32 0 0 0 1.69.14c.35 0 .44-.16.44-.48v-4.35a16.65 16.65 0 0 1-5.24 4.5l-.68-.78A15.15 15.15 0 0 0 166 12.4h-5.12v-1a8.27 8.27 0 0 0 1.1.07h4.37v-1.16a8.29 8.29 0 0 0-.11-1h1.12a7 7 0 0 0-.07 1v1.16zm2.63 2.03c.36 0 1 .06 1.67.06H180c.6 0 1 0 1.29-.06v1.18c-.24 0-.74-.06-1.28-.06h-6.58c-.66 0-1.3 0-1.67.06zm18.01-3.02h.4a1.34 1.34 0 1 1 1.28 1 1.46 1.46 0 0 1-.46-.07v.13a11.92 11.92 0 0 1-1.79 4.43 9.19 9.19 0 0 1-4.73 3.2l-.82-.9a7.94 7.94 0 0 0 4.68-2.88 9.12 9.12 0 0 0 1.57-3.91h-7.33v-1.08a11.87 11.87 0 0 0 1.2.07zm2.47-.4a.79.79 0 1 0-1.58 0 .79.79 0 0 0 1.58 0zm6.33 6.11a11.29 11.29 0 0 0 4-4.41l.58 1a12 12 0 0 1-4 4.26 12.93 12.93 0 0 1-4.71 1.87l-.64-1a12.38 12.38 0 0 0 4.77-1.72zm-.71-3.8l-.76.76a24.85 24.85 0 0 0-3-2.51l.68-.73a26.29 26.29 0 0 1 3.09 2.47z"/><circle class="cls-1" cx="131" cy="15" r="1.5"/></svg>