<svg id="Layer_1" xmlns="http://www.w3.org/2000/svg" viewBox="0 0 701 169"><style>.st0{fill:#e9a520}.st1{fill:#dee1f3}.st2{fill:#ebac32}.st3{fill:#efc36c}.st4{fill:#15a9e0}.st5{fill:#16a9e0}.st6{fill:#19aae0}.st7{fill:#f2cc82}</style><path class="st0" d="M111.6 113.9c-7.4-.4-14.9.3-22.3-1.5-9.9-2.5-18.4-7.6-26.5-13.4-6.2-4.5-12.3-9.1-18.6-13.4-7.6-5.3-16-7.8-25.3-7.4C13 78.4 7 78.1 1 78v-1c1.6-7 1.6-14 0-21v-1c4.6-.1 9.3-.6 13.9-.1 16.3 1.8 28.9-5.9 40.6-15.6 16.3-13.4 34.2-22.3 56-20.2.5-.7.2-1-.5-1.2-3-3-5.8-6.2-9.1-9-2.8-2.4-3.3-4.8-2-8h2c5.7 1.6 11.3 1.6 17 0h1c10 7.2 17.8 16.8 26.6 25.3 3.5 3.4 3.5 6.4 0 10-6.9 7-13.8 14-20.8 20.9-2.6 2.6-5.7 3.9-9.5 3.7-4.2-.1-8.3-.1-12.5-.1-1.9 0-3.8-.1-4.7-2.1-.9-2.2.9-3.4 2.1-4.6 3.4-3.4 6.8-6.7 10.8-10.7-10.2-1.1-19.1-.4-27.5 4.6-8.5 5-16 11.4-24.1 17-1.9 1.3-1.6 2 .1 3.2C68.1 73.4 75.5 78.8 83 84c8.5 5.8 18.1 6.9 29.4 5.6-4.3-4.1-7.9-7.6-11.5-11.1-1.2-1.2-2.6-2.4-1.6-4.3.8-1.7 2.5-2 4.2-2 4.5 0 9 0 13.5.1 3.5.1 6.4 1.4 8.9 3.9 6.8 6.9 13.7 13.7 20.4 20.5 3.7 3.8 3.8 6.6.2 10.3-6.8 6.9-13.6 13.7-20.4 20.6-2.6 2.6-5.7 4-9.4 4-4.7 0-9.3-.2-14-.3-1.4 0-2.7-.3-3.4-1.6-.9-1.6 0-2.9 1.1-4 3.5-3.5 7.1-7 10.6-10.6.8-.2 1.1-.5.6-1.2z"/><path class="st1" d="M633 169c0-3.3.2-6.7-.1-10-.3-3.9.9-5.3 5-5.1 9.6.3 19.3 0 28.7-1.9 10.7-2.2 18.2-11.7 18.3-22.6.2-22.3 0-44.7.1-67 0-2.2.2-4.5-3.1-4.3-9.5.5-18.9-.4-28.4.8-15.9 2.1-23.4 19.2-21 33.1 3.4 20.1 25.5 26.3 42.4 17 3.9-2.1 4.2-1.3 4.2 2.5 0 11.8-3.3 15.4-17.2 16.5-20 1.5-39.4-10-44.2-30.9-5.5-23.9 6.9-46.1 32-52.6 1.7-.4 3.6-.4 5.5-.4h46v87c-.3.4-.8.8-.8 1.2-2.1 18-13.2 28-29.4 33.8-3.9 1.4-8.1 1.1-11.8 3-8.9-.1-17.5-.1-26.2-.1z"/><path class="st2" d="M1 56c1.6 7 1.6 14 0 21V56z"/><path class="st3" d="M119 1c-5.7 1.6-11.3 1.6-17 0h17z"/><path class="st4" d="M450.4 43.3c-6.6 11.4-12.7 22.1-19 32.6-1.7 2.9-1.9 4.2 1.7 5.6 10.1 4 14.8 12.4 16.7 22.6 1.3 6.9.9 13.9 1 20.9 0 2.2-.7 3.1-2.9 2.9h-1c-11.8.4-12.1.4-11.8-11.4.6-22.2-16.2-27.8-32.2-26-2.9.3-2.9 1.9-2.9 4.1 0 9.7-.1 19.3.1 29 .1 3.5-1 4.5-4.5 4.4-11-.1-11 .1-11-10.8 0-36 .1-71.9-.1-107.9 0-3.9.9-5.1 4.9-5.1 10.5.2 10.5 0 10.5 10.4 0 19 .1 38-.1 56.9 0 3.5.6 4.4 4.7 5.1 9.3 1.6 12.8-3.3 16.1-10.4 3.2-6.8 7.2-13.1 10.6-19.8 1.2-2.4 2.8-3.4 5.5-3.2 4.4.3 8.6.1 13.7.1z"/><path class="st5" d="M305.2 86c-.1 24.9-19 44-43.5 43.9-24.2-.2-42.8-19.7-42.7-44.7.1-24.7 19-43.8 43.2-43.6 24.2.1 43.1 19.6 43 44.4zm-15.9.1c.1-15-7.8-26.3-20.3-28.9-13.8-2.9-26 2.8-31.3 14.6-6 13.3-2.4 30.3 8.2 38.2 2.6 1.9 5.4 3.2 8.5 4 19.3 4.9 34.8-7.5 34.9-27.9z"/><path class="st1" d="M556.8 42c24.1-1.1 43.7 19.9 43.4 44-.3 24-18 44-43.4 43.8-24.5-.1-42.7-19.3-42.8-44.4-.1-24.7 19.5-44.6 42.8-43.4zm.3 15c-16.7-1.4-27.3 12.4-27.1 28.6.2 17.6 10.8 29.2 26.9 29.4 16.9.2 27.4-13.7 27.4-28.9-.1-16.8-10.8-30.5-27.2-29.1z"/><path class="st4" d="M159.7 58.2c2.3-4.8 4.1-8.7 6-12.5.3-.7 1-1.9 1.4-1.9 5.8.2 4.6-4.1 5.1-7.5 2.3-16.4 16.3-29.2 34.2-31.3 8.5-1 8.1-1 8.6 7.6.3 5.4-1.3 7-6.6 7.4-12.6 1-20 8.6-20.7 19.7-.2 2.9.7 3.8 3.5 3.7 4.5-.2 9 0 13.5-.1 2.4-.1 3 .8 3.1 3.2.5 11.7.6 11.7-11.1 11.7-9.1 0-9.1 0-9.1 9.2 0 18.3-.1 36.7.1 55 .1 4.2-.7 5.8-5.3 5.7-10.8-.4-10.8-.1-10.8-11.1 0-17.7-.2-35.3.1-53 .1-4.6-1.1-6.5-5.8-5.8-1.8.3-3.6 0-6.2 0z"/><path class="st1" d="M485 52.2c0 13.7.1 27.3-.1 41 0 3.4.6 6.6 1.3 9.8 1.2 5.7 6.9 9.9 14 9.8 4.2 0 4.9 1.6 4.9 5.3-.1 10.2 0 9.9-10 9-16.4-1.5-24.2-10.8-25.2-27-1.8-30.4-.2-60.9-.9-91.3-.1-3.3 1-4.7 4.6-4.8 11.1-.3 11.5 0 11.5 10.8-.1 12.4-.1 24.9-.1 37.4z"/><path class="st6" d="M321.3 97.8c.3-8.2-.5-18 .6-27.9 1.9-16.6 9.9-24.8 26.6-26.2 7.3-.6 14.6-.3 22-.5 2.4-.1 3.1.9 3.2 3.2.7 11.9.8 11.8-11 11.9-4.5 0-9-.1-13.5.3-6.7.7-10 4-11.4 10.6-.8 4.1-.9 8.3-.9 12.4 0 14-.1 28 .1 42 0 3.2-.7 4.3-4.1 4.3-11.7 0-11.7.2-11.7-11.7.1-5.5.1-11.2.1-18.4z"/><path class="st7" d="M111.6 113.9c.5.7.2 1-.5 1.2.1-.4.3-.8.5-1.2zm0-94.8c-.2-.4-.3-.8-.5-1.2.7.2 1 .6.5 1.2z"/></svg>